<svg width="280" height="280" viewBox="0 0 280 280" fill="none" xmlns="http://www.w3.org/2000/svg">
<rect width="280" height="280" rx="20" fill="#99BFC6"/>
<path d="M73.3333 106.667C70.037 106.667 66.8146 107.644 64.0738 109.476C61.333 111.307 59.1968 113.91 57.9353 116.955C56.6739 120.001 56.3438 123.352 56.9869 126.585C57.63 129.818 59.2173 132.788 61.5482 135.118C63.8791 137.449 66.8488 139.037 70.0818 139.68C73.3148 140.323 76.666 139.993 79.7114 138.731C82.7568 137.47 85.3598 135.334 87.1912 132.593C89.0225 129.852 90 126.63 90 123.333C90 118.913 88.2441 114.674 85.1184 111.548C81.9928 108.423 77.7536 106.667 73.3333 106.667ZM73.3333 131.667C71.6852 131.667 70.074 131.178 68.7036 130.262C67.3332 129.347 66.2651 128.045 65.6343 126.522C65.0036 125 64.8386 123.324 65.1601 121.708C65.4817 120.091 66.2753 118.606 67.4408 117.441C68.6062 116.275 70.0911 115.482 71.7076 115.16C73.3241 114.839 74.9996 115.004 76.5224 115.634C78.0451 116.265 79.3466 117.333 80.2622 118.704C81.1779 120.074 81.6667 121.685 81.6667 123.333C81.6667 125.544 80.7887 127.663 79.2259 129.226C77.6631 130.789 75.5435 131.667 73.3333 131.667ZM144.167 106.667C135.102 106.667 126.24 109.355 118.703 114.391C111.166 119.427 105.291 126.585 101.822 134.96C98.3532 143.335 97.4455 152.551 99.214 161.442C100.982 170.332 105.348 178.499 111.758 184.909C118.168 191.319 126.334 195.684 135.225 197.453C144.116 199.221 153.331 198.314 161.706 194.845C170.081 191.376 177.239 185.501 182.276 177.964C187.312 170.426 190 161.565 190 152.5C189.978 140.351 185.142 128.706 176.551 120.115C167.961 111.525 156.316 106.689 144.167 106.667ZM144.167 190C136.75 190 129.5 187.801 123.333 183.68C117.166 179.56 112.359 173.703 109.521 166.851C106.683 159.998 105.94 152.458 107.387 145.184C108.834 137.91 112.406 131.228 117.65 125.984C122.895 120.739 129.576 117.168 136.851 115.721C144.125 114.274 151.665 115.016 158.517 117.855C165.37 120.693 171.226 125.499 175.347 131.666C179.467 137.833 181.667 145.083 181.667 152.5C181.667 157.425 180.697 162.301 178.812 166.851C176.928 171.4 174.165 175.534 170.683 179.017C167.201 182.499 163.067 185.261 158.517 187.146C153.968 189.03 149.091 190 144.167 190ZM227.5 90H223.333V85.8334C223.333 82.5182 222.016 79.3387 219.672 76.9945C217.328 74.6503 214.149 73.3334 210.833 73.3334H202.5C199.185 73.3334 196.005 74.6503 193.661 76.9945C191.317 79.3387 190 82.5182 190 85.8334V90H183.5C182.634 89.9936 181.791 89.7173 181.089 89.2094C180.387 88.7016 179.861 87.9876 179.583 87.1667L175 73.3334C174.136 70.8885 172.532 68.773 170.412 67.2799C168.292 65.7868 165.76 64.9901 163.167 65H125.167C122.574 64.9901 120.041 65.7868 117.921 67.2799C115.801 68.773 114.198 70.8885 113.333 73.3334L108.75 87.1667C108.473 87.9876 107.947 88.7016 107.245 89.2094C106.543 89.7173 105.7 89.9936 104.833 90H98.3333V85.8334C98.3333 82.5182 97.0164 79.3387 94.6722 76.9945C92.328 74.6503 89.1485 73.3334 85.8333 73.3334H69.1667C65.8515 73.3334 62.672 74.6503 60.3278 76.9945C57.9836 79.3387 56.6667 82.5182 56.6667 85.8334V90H52.5C49.1848 90 46.0054 91.317 43.6612 93.6612C41.317 96.0054 40 99.1848 40 102.5V202.5C40 205.815 41.317 208.995 43.6612 211.339C46.0054 213.683 49.1848 215 52.5 215H227.5C230.815 215 233.995 213.683 236.339 211.339C238.683 208.995 240 205.815 240 202.5V102.5C240 99.1848 238.683 96.0054 236.339 93.6612C233.995 91.317 230.815 90 227.5 90ZM198.333 85.8334C198.333 84.7283 198.772 83.6685 199.554 82.8871C200.335 82.1057 201.395 81.6667 202.5 81.6667H210.833C211.938 81.6667 212.998 82.1057 213.78 82.8871C214.561 83.6685 215 84.7283 215 85.8334V90H198.333V85.8334ZM65 85.8334C65 84.7283 65.439 83.6685 66.2204 82.8871C67.0018 82.1057 68.0616 81.6667 69.1667 81.6667H85.8333C86.9384 81.6667 87.9982 82.1057 88.7796 82.8871C89.561 83.6685 90 84.7283 90 85.8334V90H65V85.8334ZM231.667 202.5C231.667 203.605 231.228 204.665 230.446 205.446C229.665 206.228 228.605 206.667 227.5 206.667H52.5C51.3949 206.667 50.3351 206.228 49.5537 205.446C48.7723 204.665 48.3333 203.605 48.3333 202.5V102.5C48.3333 101.395 48.7723 100.335 49.5537 99.5538C50.3351 98.7724 51.3949 98.3334 52.5 98.3334H104.833C107.426 98.3434 109.959 97.5466 112.079 96.0535C114.199 94.5604 115.802 92.4449 116.667 90L121.167 76.4167C121.404 75.5357 121.924 74.7569 122.646 74.1999C123.369 73.6429 124.254 73.3385 125.167 73.3334H163.167C164.033 73.3398 164.876 73.6162 165.578 74.124C166.28 74.6318 166.806 75.3458 167.083 76.1667L171.667 90C172.531 92.4449 174.134 94.5604 176.255 96.0535C178.375 97.5466 180.907 98.3434 183.5 98.3334H227.5C228.605 98.3334 229.665 98.7724 230.446 99.5538C231.228 100.335 231.667 101.395 231.667 102.5V202.5ZM135.833 90H152.5C153.605 90 154.665 89.5611 155.446 88.7797C156.228 87.9983 156.667 86.9384 156.667 85.8334C156.667 84.7283 156.228 83.6685 155.446 82.8871C154.665 82.1057 153.605 81.6667 152.5 81.6667H135.833C134.728 81.6667 133.668 82.1057 132.887 82.8871C132.106 83.6685 131.667 84.7283 131.667 85.8334C131.667 86.9384 132.106 87.9983 132.887 88.7797C133.668 89.5611 134.728 90 135.833 90ZM144.167 123.333C138.398 123.333 132.759 125.044 127.963 128.249C123.166 131.454 119.428 136.009 117.22 141.338C115.013 146.668 114.435 152.532 115.56 158.19C116.686 163.848 119.464 169.045 123.543 173.124C127.622 177.203 132.819 179.981 138.477 181.106C144.134 182.232 149.999 181.654 155.328 179.447C160.658 177.239 165.213 173.501 168.418 168.704C171.623 163.908 173.333 158.269 173.333 152.5C173.333 144.765 170.26 137.346 164.791 131.876C159.321 126.406 151.902 123.333 144.167 123.333ZM144.167 173.333C140.046 173.333 136.018 172.112 132.592 169.822C129.166 167.533 126.496 164.279 124.919 160.473C123.342 156.666 122.93 152.477 123.734 148.436C124.537 144.394 126.522 140.682 129.435 137.769C132.349 134.855 136.061 132.871 140.102 132.067C144.144 131.263 148.332 131.676 152.139 133.253C155.946 134.829 159.2 137.5 161.489 140.926C163.778 144.352 165 148.38 165 152.5C165 158.025 162.805 163.324 158.898 167.231C154.991 171.138 149.692 173.333 144.167 173.333ZM202.5 106.667C201.676 106.667 200.87 106.911 200.185 107.369C199.5 107.827 198.966 108.478 198.65 109.239C198.335 110 198.253 110.838 198.413 111.646C198.574 112.455 198.971 113.197 199.554 113.78C200.136 114.362 200.879 114.759 201.687 114.92C202.495 115.081 203.333 114.998 204.095 114.683C204.856 114.368 205.507 113.833 205.964 113.148C206.422 112.463 206.667 111.657 206.667 110.833C206.667 109.728 206.228 108.668 205.446 107.887C204.665 107.106 203.605 106.667 202.5 106.667Z" fill="#554348"/>
</svg>
