<svg width="120" height="120" viewBox="0 0 120 120" fill="none" xmlns="http://www.w3.org/2000/svg">
<circle cx="60" cy="60" r="59" stroke="#99BFC6" stroke-width="2"/>
<ellipse cx="60" cy="100" rx="30" ry="20" fill="#99BFC6"/>
<path d="M50 95.25C49.5055 95.25 49.0222 95.3966 48.6111 95.6713C48.2 95.946 47.8795 96.3365 47.6903 96.7933C47.5011 97.2501 47.4516 97.7528 47.548 98.2377C47.6445 98.7227 47.8826 99.1681 48.2322 99.5178C48.5819 99.8674 49.0273 100.106 49.5123 100.202C49.9972 100.298 50.4999 100.249 50.9567 100.06C51.4135 99.8705 51.804 99.5501 52.0787 99.1389C52.3534 98.7278 52.5 98.2445 52.5 97.75C52.5 97.087 52.2366 96.4511 51.7678 95.9822C51.2989 95.5134 50.663 95.25 50 95.25ZM50 99C49.7528 99 49.5111 98.9267 49.3055 98.7894C49.1 98.652 48.9398 98.4568 48.8452 98.2284C48.7505 98 48.7258 97.7486 48.774 97.5062C48.8222 97.2637 48.9413 97.0409 49.1161 96.8661C49.2909 96.6913 49.5137 96.5723 49.7561 96.524C49.9986 96.4758 50.2499 96.5006 50.4784 96.5952C50.7068 96.6898 50.902 96.85 51.0393 97.0556C51.1767 97.2611 51.25 97.5028 51.25 97.75C51.25 98.0815 51.1183 98.3995 50.8839 98.6339C50.6495 98.8683 50.3315 99 50 99ZM60.625 95.25C59.2653 95.25 57.936 95.6532 56.8055 96.4087C55.6749 97.1641 54.7937 98.2378 54.2733 99.4941C53.753 100.75 53.6168 102.133 53.8821 103.466C54.1474 104.8 54.8022 106.025 55.7636 106.986C56.7251 107.948 57.9501 108.603 59.2838 108.868C60.6174 109.133 61.9997 108.997 63.2559 108.477C64.5122 107.956 65.5859 107.075 66.3414 105.945C67.0968 104.814 67.5 103.485 67.5 102.125C67.4967 100.303 66.7713 98.5559 65.4827 97.2673C64.1941 95.9787 62.4473 95.2533 60.625 95.25ZM60.625 107.75C59.5125 107.75 58.4249 107.42 57.4999 106.802C56.5749 106.184 55.8539 105.305 55.4282 104.278C55.0024 103.25 54.891 102.119 55.1081 101.028C55.3251 99.9365 55.8609 98.9342 56.6475 98.1475C57.4342 97.3609 58.4365 96.8251 59.5276 96.6081C60.6188 96.3911 61.7498 96.5024 62.7776 96.9282C63.8054 97.3539 64.6839 98.0749 65.302 98.9999C65.9201 99.925 66.25 101.012 66.25 102.125C66.25 102.864 66.1045 103.595 65.8218 104.278C65.5391 104.96 65.1248 105.58 64.6025 106.102C64.0801 106.625 63.4601 107.039 62.7776 107.322C62.0951 107.605 61.3637 107.75 60.625 107.75ZM73.125 92.75H72.5V92.125C72.5 91.6277 72.3025 91.1508 71.9508 90.7992C71.5992 90.4476 71.1223 90.25 70.625 90.25H69.375C68.8777 90.25 68.4008 90.4476 68.0492 90.7992C67.6975 91.1508 67.5 91.6277 67.5 92.125V92.75H66.525C66.395 92.749 66.2686 92.7076 66.1633 92.6314C66.058 92.5552 65.9791 92.4481 65.9375 92.325L65.25 90.25C65.1203 89.8833 64.8798 89.566 64.5618 89.342C64.2438 89.118 63.864 88.9985 63.475 89H57.775C57.386 88.9985 57.0062 89.118 56.6882 89.342C56.3702 89.566 56.1297 89.8833 56 90.25L55.3125 92.325C55.2709 92.4481 55.192 92.5552 55.0867 92.6314C54.9814 92.7076 54.855 92.749 54.725 92.75H53.75V92.125C53.75 91.6277 53.5525 91.1508 53.2008 90.7992C52.8492 90.4476 52.3723 90.25 51.875 90.25H49.375C48.8777 90.25 48.4008 90.4476 48.0492 90.7992C47.6975 91.1508 47.5 91.6277 47.5 92.125V92.75H46.875C46.3777 92.75 45.9008 92.9476 45.5492 93.2992C45.1975 93.6508 45 94.1277 45 94.625V109.625C45 110.122 45.1975 110.599 45.5492 110.951C45.9008 111.302 46.3777 111.5 46.875 111.5H73.125C73.6223 111.5 74.0992 111.302 74.4508 110.951C74.8025 110.599 75 110.122 75 109.625V94.625C75 94.1277 74.8025 93.6508 74.4508 93.2992C74.0992 92.9476 73.6223 92.75 73.125 92.75ZM68.75 92.125C68.75 91.9593 68.8158 91.8003 68.9331 91.6831C69.0503 91.5659 69.2092 91.5 69.375 91.5H70.625C70.7908 91.5 70.9497 91.5659 71.0669 91.6831C71.1842 91.8003 71.25 91.9593 71.25 92.125V92.75H68.75V92.125ZM48.75 92.125C48.75 91.9593 48.8158 91.8003 48.9331 91.6831C49.0503 91.5659 49.2092 91.5 49.375 91.5H51.875C52.0408 91.5 52.1997 91.5659 52.3169 91.6831C52.4342 91.8003 52.5 91.9593 52.5 92.125V92.75H48.75V92.125ZM73.75 109.625C73.75 109.791 73.6842 109.95 73.5669 110.067C73.4497 110.184 73.2908 110.25 73.125 110.25H46.875C46.7092 110.25 46.5503 110.184 46.4331 110.067C46.3158 109.95 46.25 109.791 46.25 109.625V94.625C46.25 94.4593 46.3158 94.3003 46.4331 94.1831C46.5503 94.0659 46.7092 94 46.875 94H54.725C55.114 94.0015 55.4938 93.882 55.8118 93.658C56.1298 93.4341 56.3703 93.1167 56.5 92.75L57.175 90.7125C57.2106 90.5804 57.2886 90.4635 57.3969 90.38C57.5053 90.2964 57.6381 90.2508 57.775 90.25H63.475C63.605 90.251 63.7314 90.2924 63.8367 90.3686C63.942 90.4448 64.0209 90.5519 64.0625 90.675L64.75 92.75C64.8797 93.1167 65.1202 93.4341 65.4382 93.658C65.7562 93.882 66.136 94.0015 66.525 94H73.125C73.2908 94 73.4497 94.0659 73.5669 94.1831C73.6842 94.3003 73.75 94.4593 73.75 94.625V109.625ZM59.375 92.75H61.875C62.0408 92.75 62.1997 92.6842 62.3169 92.567C62.4342 92.4497 62.5 92.2908 62.5 92.125C62.5 91.9593 62.4342 91.8003 62.3169 91.6831C62.1997 91.5659 62.0408 91.5 61.875 91.5H59.375C59.2092 91.5 59.0503 91.5659 58.9331 91.6831C58.8158 91.8003 58.75 91.9593 58.75 92.125C58.75 92.2908 58.8158 92.4497 58.9331 92.567C59.0503 92.6842 59.2092 92.75 59.375 92.75ZM60.625 97.75C59.7597 97.75 58.9138 98.0066 58.1944 98.4873C57.4749 98.9681 56.9142 99.6513 56.583 100.451C56.2519 101.25 56.1653 102.13 56.3341 102.979C56.5029 103.827 56.9196 104.607 57.5314 105.219C58.1433 105.83 58.9228 106.247 59.7715 106.416C60.6201 106.585 61.4998 106.498 62.2992 106.167C63.0987 105.836 63.7819 105.275 64.2627 104.556C64.7434 103.836 65 102.99 65 102.125C65 100.965 64.5391 99.8519 63.7186 99.0314C62.8981 98.211 61.7853 97.75 60.625 97.75ZM60.625 105.25C60.0069 105.25 59.4027 105.067 58.8888 104.723C58.3749 104.38 57.9744 103.892 57.7379 103.321C57.5014 102.75 57.4395 102.122 57.56 101.515C57.6806 100.909 57.9783 100.352 58.4153 99.9153C58.8523 99.4783 59.4092 99.1806 60.0153 99.0601C60.6215 98.9395 61.2499 99.0014 61.8209 99.2379C62.3919 99.4744 62.88 99.875 63.2233 100.389C63.5667 100.903 63.75 101.507 63.75 102.125C63.75 102.954 63.4208 103.749 62.8347 104.335C62.2487 104.921 61.4538 105.25 60.625 105.25ZM69.375 95.25C69.2514 95.25 69.1306 95.2867 69.0278 95.3553C68.925 95.424 68.8449 95.5216 68.7976 95.6358C68.7503 95.75 68.7379 95.8757 68.762 95.9969C68.7861 96.1182 68.8456 96.2295 68.9331 96.317C69.0205 96.4044 69.1318 96.4639 69.2531 96.488C69.3743 96.5121 69.5 96.4997 69.6142 96.4524C69.7284 96.4051 69.826 96.325 69.8947 96.2222C69.9633 96.1195 70 95.9986 70 95.875C70 95.7093 69.9342 95.5503 69.8169 95.4331C69.6997 95.3159 69.5408 95.25 69.375 95.25Z" fill="#554348"/>
</svg>
