<svg width="16" height="17" viewBox="0 0 16 17" fill="none" xmlns="http://www.w3.org/2000/svg">
<path d="M8 0.5C6.41775 0.5 4.87103 0.969192 3.55544 1.84824C2.23985 2.72729 1.21447 3.97672 0.608967 5.43853C0.00346629 6.90034 -0.15496 8.50887 0.153721 10.0607C0.462403 11.6126 1.22433 13.038 2.34315 14.1569C3.46197 15.2757 4.88743 16.0376 6.43928 16.3463C7.99113 16.655 9.59966 16.4965 11.0615 15.891C12.5233 15.2855 13.7727 14.2602 14.6518 12.9446C15.5308 11.629 16 10.0822 16 8.5C16 6.37827 15.1571 4.34344 13.6569 2.84315C12.1566 1.34285 10.1217 0.5 8 0.5ZM8 15.1667C6.68146 15.1667 5.39253 14.7757 4.2962 14.0431C3.19987 13.3106 2.34539 12.2694 1.84081 11.0512C1.33622 9.83305 1.2042 8.4926 1.46143 7.1994C1.71867 5.90619 2.35361 4.7183 3.28596 3.78595C4.21831 2.8536 5.40619 2.21867 6.6994 1.96143C7.99261 1.7042 9.33305 1.83622 10.5512 2.3408C11.7694 2.84539 12.8106 3.69987 13.5431 4.7962C14.2757 5.89252 14.6667 7.18146 14.6667 8.5C14.6667 10.2681 13.9643 11.9638 12.714 13.214C11.4638 14.4643 9.76811 15.1667 8 15.1667Z" fill="#D35252"/>
<path d="M7.99995 6.96666C7.82314 6.96666 7.65357 7.0369 7.52855 7.16193C7.40352 7.28695 7.33328 7.45652 7.33328 7.63333V12.1667C7.33328 12.3435 7.40352 12.513 7.52855 12.6381C7.65357 12.7631 7.82314 12.8333 7.99995 12.8333C8.17676 12.8333 8.34633 12.7631 8.47136 12.6381C8.59638 12.513 8.66662 12.3435 8.66662 12.1667V7.63333C8.66662 7.45652 8.59638 7.28695 8.47136 7.16193C8.34633 7.0369 8.17676 6.96666 7.99995 6.96666ZM7.99995 4.23333C7.81947 4.24012 7.64844 4.31574 7.52198 4.44468C7.39552 4.57362 7.32323 4.74609 7.31995 4.92666V5.03333C7.31963 5.12031 7.33743 5.20641 7.3722 5.28614C7.40698 5.36586 7.45797 5.43748 7.52193 5.49643C7.5859 5.55537 7.66143 5.60036 7.74373 5.62852C7.82603 5.65668 7.91328 5.6674 7.99995 5.66C8.17465 5.6534 8.34042 5.58104 8.46404 5.45742C8.58766 5.3338 8.66002 5.16803 8.66662 4.99333V4.83333C8.66714 4.7486 8.64971 4.66472 8.61548 4.58721C8.58125 4.5097 8.53099 4.44032 8.46801 4.38364C8.40503 4.32695 8.33075 4.28425 8.25008 4.25835C8.1694 4.23244 8.08416 4.22391 7.99995 4.23333Z" fill="#D35252"/>
</svg>
