<svg width="24" height="25" viewBox="0 0 24 25" fill="none" xmlns="http://www.w3.org/2000/svg">
<path d="M12 0.5C9.62663 0.5 7.30655 1.20379 5.33316 2.52236C3.35977 3.84094 1.8217 5.71508 0.913451 7.9078C0.00519943 10.1005 -0.232441 12.5133 0.230582 14.8411C0.693605 17.1689 1.83649 19.307 3.51472 20.9853C5.19295 22.6635 7.33115 23.8064 9.65892 24.2694C11.9867 24.7324 14.3995 24.4948 16.5922 23.5865C18.7849 22.6783 20.6591 21.1402 21.9776 19.1668C23.2962 17.1934 24 14.8734 24 12.5C24 9.3174 22.7357 6.26515 20.4853 4.01472C18.2348 1.76428 15.1826 0.5 12 0.5ZM12 22.5C10.0222 22.5 8.08879 21.9135 6.4443 20.8147C4.79981 19.7159 3.51809 18.1541 2.76121 16.3268C2.00433 14.4996 1.8063 12.4889 2.19215 10.5491C2.578 8.60929 3.53041 6.82746 4.92894 5.42893C6.32746 4.03041 8.10929 3.078 10.0491 2.69215C11.9889 2.30629 13.9996 2.50433 15.8268 3.2612C17.6541 4.01808 19.2159 5.29981 20.3147 6.9443C21.4135 8.58879 22 10.5222 22 12.5C22 15.1522 20.9464 17.6957 19.0711 19.5711C17.1957 21.4464 14.6522 22.5 12 22.5Z" fill="#747578"/>
<path d="M11.9999 10.2001C11.7346 10.2001 11.4803 10.3054 11.2928 10.4929C11.1052 10.6805 10.9999 10.9348 10.9999 11.2001V18.0001C10.9999 18.2653 11.1052 18.5196 11.2928 18.7072C11.4803 18.8947 11.7346 19.0001 11.9999 19.0001C12.2651 19.0001 12.5194 18.8947 12.707 18.7072C12.8945 18.5196 12.9999 18.2653 12.9999 18.0001V11.2001C12.9999 10.9348 12.8945 10.6805 12.707 10.4929C12.5194 10.3054 12.2651 10.2001 11.9999 10.2001ZM11.9999 6.10006C11.7292 6.11024 11.4726 6.22368 11.2829 6.41709C11.0932 6.6105 10.9848 6.8692 10.9799 7.14006V7.30006C10.9794 7.43053 11.0061 7.55967 11.0582 7.67926C11.1104 7.79886 11.1869 7.90628 11.2828 7.9947C11.3788 8.08312 11.4921 8.1506 11.6155 8.19284C11.739 8.23508 11.8699 8.25116 11.9999 8.24006C12.2619 8.23016 12.5106 8.12162 12.696 7.93619C12.8814 7.75076 12.99 7.50211 12.9999 7.24006V7.00006C13.0007 6.87296 12.9745 6.74714 12.9232 6.63088C12.8718 6.51461 12.7964 6.41054 12.702 6.32552C12.6075 6.24049 12.4961 6.17644 12.3751 6.13758C12.254 6.09872 12.1262 6.08593 11.9999 6.10006Z" fill="#747578"/>
</svg>
