<svg width="16" height="18" viewBox="0 0 16 18" fill="none" xmlns="http://www.w3.org/2000/svg">
<path d="M6.22222 14.3333C6.45797 14.3333 6.68406 14.2397 6.85076 14.073C7.01746 13.9063 7.11111 13.6802 7.11111 13.4444V8.11112C7.11111 7.87537 7.01746 7.64927 6.85076 7.48258C6.68406 7.31588 6.45797 7.22223 6.22222 7.22223C5.98647 7.22223 5.76038 7.31588 5.59368 7.48258C5.42698 7.64927 5.33333 7.87537 5.33333 8.11112V13.4444C5.33333 13.6802 5.42698 13.9063 5.59368 14.073C5.76038 14.2397 5.98647 14.3333 6.22222 14.3333ZM15.1111 3.66667H11.5556V2.77778C11.5556 2.07054 11.2746 1.39226 10.7745 0.892163C10.2744 0.392066 9.59613 0.111115 8.88889 0.111115H7.11111C6.40387 0.111115 5.72559 0.392066 5.22549 0.892163C4.7254 1.39226 4.44444 2.07054 4.44444 2.77778V3.66667H0.888889C0.653141 3.66667 0.427048 3.76032 0.260349 3.92702C0.0936505 4.09372 0 4.31981 0 4.55556C0 4.79131 0.0936505 5.0174 0.260349 5.1841C0.427048 5.3508 0.653141 5.44445 0.888889 5.44445H1.77778V15.2222C1.77778 15.9295 2.05873 16.6077 2.55883 17.1078C3.05892 17.6079 3.7372 17.8889 4.44444 17.8889H11.5556C12.2628 17.8889 12.9411 17.6079 13.4412 17.1078C13.9413 16.6077 14.2222 15.9295 14.2222 15.2222V5.44445H15.1111C15.3469 5.44445 15.573 5.3508 15.7397 5.1841C15.9064 5.0174 16 4.79131 16 4.55556C16 4.31981 15.9064 4.09372 15.7397 3.92702C15.573 3.76032 15.3469 3.66667 15.1111 3.66667ZM6.22222 2.77778C6.22222 2.54203 6.31587 2.31594 6.48257 2.14924C6.64927 1.98254 6.87536 1.88889 7.11111 1.88889H8.88889C9.12464 1.88889 9.35073 1.98254 9.51743 2.14924C9.68413 2.31594 9.77778 2.54203 9.77778 2.77778V3.66667H6.22222V2.77778ZM12.4444 15.2222C12.4444 15.458 12.3508 15.6841 12.1841 15.8508C12.0174 16.0175 11.7913 16.1111 11.5556 16.1111H4.44444C4.2087 16.1111 3.9826 16.0175 3.81591 15.8508C3.64921 15.6841 3.55556 15.458 3.55556 15.2222V5.44445H12.4444V15.2222ZM9.77778 14.3333C10.0135 14.3333 10.2396 14.2397 10.4063 14.073C10.573 13.9063 10.6667 13.6802 10.6667 13.4444V8.11112C10.6667 7.87537 10.573 7.64927 10.4063 7.48258C10.2396 7.31588 10.0135 7.22223 9.77778 7.22223C9.54203 7.22223 9.31594 7.31588 9.14924 7.48258C8.98254 7.64927 8.88889 7.87537 8.88889 8.11112V13.4444C8.88889 13.6802 8.98254 13.9063 9.14924 14.073C9.31594 14.2397 9.54203 14.3333 9.77778 14.3333Z" fill="white"/>
</svg>
