<svg width="400" height="400" viewBox="0 0 400 400" fill="none" xmlns="http://www.w3.org/2000/svg">
<circle cx="200" cy="200" r="200" fill="url(#paint0_linear_2001_669)"/>
<rect x="150" y="190" width="60" height="102" fill="#B9C9CC"/>
<path d="M230 41L295 79L344 107L115 108L230 41Z" fill="#8AA5AA"/>
<rect x="112" y="112" width="36" height="176" fill="#8AA5AA"/>
<rect x="212" y="112" width="136" height="176" fill="#8AA5AA"/>
<rect x="148" y="112" width="64" height="76" fill="#8AA5AA"/>
<rect x="250" y="170" width="60" height="60" fill="#B9C9CC"/>
<rect x="150" y="146" width="60" height="28" rx="2" fill="#747578"/>
<path d="M155.761 167V152.455H160.676C161.817 152.455 162.75 152.661 163.474 153.072C164.204 153.48 164.743 154.031 165.094 154.727C165.444 155.423 165.619 156.2 165.619 157.057C165.619 157.914 165.444 158.693 165.094 159.393C164.748 160.094 164.213 160.653 163.489 161.07C162.764 161.482 161.836 161.688 160.705 161.688H157.182V160.125H160.648C161.429 160.125 162.056 159.99 162.53 159.72C163.003 159.45 163.347 159.086 163.56 158.626C163.777 158.162 163.886 157.639 163.886 157.057C163.886 156.474 163.777 155.954 163.56 155.494C163.347 155.035 163.001 154.675 162.523 154.415C162.045 154.15 161.41 154.017 160.619 154.017H157.523V167H155.761ZM169.906 152.455V167H168.229V152.455H169.906ZM176.186 167.256C175.494 167.256 174.867 167.125 174.304 166.865C173.74 166.6 173.293 166.219 172.961 165.722C172.63 165.22 172.464 164.614 172.464 163.903C172.464 163.278 172.587 162.772 172.833 162.384C173.08 161.991 173.409 161.683 173.821 161.46C174.233 161.238 174.687 161.072 175.184 160.963C175.686 160.849 176.19 160.759 176.697 160.693C177.36 160.608 177.897 160.544 178.309 160.501C178.726 160.454 179.029 160.376 179.218 160.267C179.413 160.158 179.51 159.969 179.51 159.699V159.642C179.51 158.941 179.318 158.397 178.934 158.009C178.556 157.62 177.98 157.426 177.208 157.426C176.408 157.426 175.781 157.601 175.326 157.952C174.872 158.302 174.552 158.676 174.368 159.074L172.777 158.506C173.061 157.843 173.44 157.327 173.913 156.957C174.391 156.583 174.912 156.323 175.475 156.176C176.044 156.025 176.602 155.949 177.152 155.949C177.502 155.949 177.904 155.991 178.359 156.077C178.818 156.157 179.261 156.325 179.687 156.581C180.118 156.837 180.475 157.223 180.76 157.739C181.044 158.255 181.186 158.946 181.186 159.812V167H179.51V165.523H179.424C179.311 165.759 179.121 166.013 178.856 166.283C178.591 166.553 178.238 166.782 177.798 166.972C177.358 167.161 176.82 167.256 176.186 167.256ZM176.441 165.75C177.104 165.75 177.663 165.62 178.118 165.359C178.577 165.099 178.922 164.763 179.154 164.351C179.391 163.939 179.51 163.506 179.51 163.051V161.517C179.439 161.602 179.282 161.68 179.041 161.751C178.804 161.818 178.529 161.877 178.217 161.929C177.909 161.976 177.609 162.019 177.315 162.057C177.026 162.09 176.792 162.118 176.612 162.142C176.176 162.199 175.769 162.291 175.39 162.419C175.016 162.542 174.713 162.729 174.481 162.98C174.254 163.226 174.14 163.562 174.14 163.989C174.14 164.571 174.356 165.011 174.787 165.31C175.222 165.603 175.774 165.75 176.441 165.75ZM188.677 167.227C187.654 167.227 186.773 166.986 186.035 166.503C185.296 166.02 184.728 165.355 184.33 164.507C183.933 163.66 183.734 162.691 183.734 161.602C183.734 160.494 183.937 159.517 184.344 158.669C184.756 157.817 185.329 157.152 186.063 156.673C186.802 156.19 187.664 155.949 188.648 155.949C189.415 155.949 190.107 156.091 190.722 156.375C191.338 156.659 191.842 157.057 192.235 157.568C192.628 158.08 192.872 158.676 192.967 159.358H191.29C191.163 158.861 190.879 158.42 190.438 158.037C190.003 157.649 189.415 157.455 188.677 157.455C188.023 157.455 187.451 157.625 186.958 157.966C186.47 158.302 186.089 158.778 185.815 159.393C185.545 160.004 185.41 160.722 185.41 161.545C185.41 162.388 185.542 163.122 185.808 163.747C186.077 164.372 186.456 164.857 186.944 165.203C187.436 165.549 188.014 165.722 188.677 165.722C189.112 165.722 189.508 165.646 189.863 165.494C190.218 165.343 190.519 165.125 190.765 164.841C191.011 164.557 191.186 164.216 191.29 163.818H192.967C192.872 164.462 192.638 165.042 192.263 165.558C191.894 166.07 191.404 166.477 190.793 166.78C190.187 167.078 189.482 167.227 188.677 167.227ZM199.991 167.227C198.94 167.227 198.033 166.995 197.271 166.531C196.513 166.062 195.928 165.409 195.516 164.571C195.109 163.728 194.906 162.748 194.906 161.631C194.906 160.513 195.109 159.528 195.516 158.676C195.928 157.819 196.501 157.152 197.235 156.673C197.974 156.19 198.835 155.949 199.82 155.949C200.388 155.949 200.95 156.044 201.504 156.233C202.058 156.422 202.562 156.73 203.016 157.156C203.471 157.578 203.833 158.136 204.103 158.832C204.373 159.528 204.508 160.385 204.508 161.403V162.114H196.099V160.665H202.803C202.803 160.049 202.68 159.5 202.434 159.017C202.192 158.534 201.847 158.153 201.397 157.874C200.952 157.594 200.426 157.455 199.82 157.455C199.153 157.455 198.575 157.62 198.087 157.952C197.604 158.278 197.233 158.705 196.972 159.23C196.712 159.756 196.582 160.319 196.582 160.92V161.886C196.582 162.71 196.724 163.409 197.008 163.982C197.297 164.55 197.697 164.983 198.208 165.281C198.719 165.575 199.314 165.722 199.991 165.722C200.431 165.722 200.829 165.66 201.184 165.537C201.544 165.409 201.854 165.22 202.114 164.969C202.375 164.713 202.576 164.396 202.718 164.017L204.337 164.472C204.167 165.021 203.88 165.504 203.478 165.92C203.076 166.332 202.578 166.654 201.987 166.886C201.395 167.114 200.729 167.227 199.991 167.227Z" fill="white"/>
<path d="M109 290.018L109 110.018" stroke="#99BFC6" stroke-width="6" stroke-linecap="round"/>
<path d="M92 118L230.564 38" stroke="#99BFC6" stroke-width="6" stroke-linecap="round"/>
<path d="M368.564 118L230 38" stroke="#99BFC6" stroke-width="6" stroke-linecap="round"/>
<path d="M350 290V110" stroke="#99BFC6" stroke-width="6" stroke-linecap="round"/>
<path d="M110 110L350 110" stroke="#99BFC6" stroke-width="6" stroke-linecap="round"/>
<path d="M250 230.018V170.018" stroke="#8C9A9E" stroke-width="4" stroke-linecap="round"/>
<path d="M310 230V170" stroke="#8C9A9E" stroke-width="4" stroke-linecap="round"/>
<path d="M250 170H310" stroke="#8C9A9E" stroke-width="4" stroke-linecap="round"/>
<path d="M250 230H310" stroke="#8C9A9E" stroke-width="4" stroke-linecap="round"/>
<path d="M110 290H150" stroke="#99BFC6" stroke-width="6" stroke-linecap="round"/>
<path d="M210 290L350 290" stroke="#99BFC6" stroke-width="6" stroke-linecap="round"/>
<path d="M150 190H210" stroke="#99BFC6" stroke-width="6" stroke-linecap="round"/>
<path d="M150 290V190" stroke="#99BFC6" stroke-width="6" stroke-linecap="round"/>
<path d="M210 290V190" stroke="#99BFC6" stroke-width="6" stroke-linecap="round"/>
<circle cx="280" cy="200" r="19" stroke="black" stroke-width="2"/>
<circle cx="273" cy="195" r="3" fill="black"/>
<circle cx="287" cy="195" r="3" fill="black"/>
<path d="M268 206C275 214 286 214 292 206" stroke="black" stroke-width="2" stroke-linecap="round"/>
<line x1="280" y1="219" x2="280" y2="229" stroke="black" stroke-width="4"/>
<path d="M304.447 214.894C304.941 214.647 305.141 214.047 304.894 213.553C304.647 213.059 304.047 212.859 303.553 213.106L304.447 214.894ZM280.447 226.894L304.447 214.894L303.553 213.106L279.553 225.106L280.447 226.894Z" fill="black"/>
<path d="M255.553 214.894C255.059 214.647 254.859 214.047 255.106 213.553C255.353 213.059 255.953 212.859 256.447 213.106L255.553 214.894ZM279.553 226.894L255.553 214.894L256.447 213.106L280.447 225.106L279.553 226.894Z" fill="black"/>
<line x1="259" y1="216.963" x2="259" y2="224.272" stroke="#83AB63" stroke-width="2"/>
<path d="M253.285 222.018C254.886 221.019 257.454 221.013 258.847 221.459C260.24 221.905 259.918 222.445 262.355 221.765C264.791 221.085 264.182 221.835 264.182 221.835L261.746 228.535H255.655L253.285 222.018Z" fill="#554348"/>
<circle cx="258.7" cy="212.7" r="1.82719" fill="white"/>
<path d="M262.336 209.445C263.018 210.127 263.482 210.995 263.67 211.94C263.858 212.885 263.761 213.865 263.392 214.755C263.024 215.646 262.399 216.407 261.598 216.942C260.796 217.477 259.854 217.763 258.891 217.763C257.927 217.763 256.985 217.477 256.184 216.942C255.382 216.407 254.758 215.646 254.389 214.755C254.02 213.865 253.924 212.885 254.112 211.94C254.3 210.995 254.764 210.127 255.445 209.445L258.891 212.891L262.336 209.445Z" fill="#E6FFFF"/>
<line x1="255.654" y1="228.144" x2="261.745" y2="228.144" stroke="#99BFC6" stroke-width="2"/>
<line x1="260.826" y1="228.75" x2="264.48" y2="220.224" stroke="#99BFC6" stroke-width="2"/>
<line y1="-1" x2="9.27696" y2="-1" transform="matrix(-0.393919 -0.919145 -0.919145 0.393919 255.654 229.144)" stroke="#99BFC6" stroke-width="2"/>
<line x1="301" y1="217" x2="301" y2="224.309" stroke="#83AB63" stroke-width="2"/>
<path d="M295.285 222.018C296.886 221.019 299.454 221.013 300.847 221.459C302.24 221.905 301.918 222.445 304.355 221.765C306.791 221.085 306.182 221.835 306.182 221.835L303.746 228.535H297.655L295.285 222.018Z" fill="#554348"/>
<circle cx="300.7" cy="212.7" r="1.82719" fill="white"/>
<path d="M304.336 209.445C305.018 210.127 305.482 210.995 305.67 211.94C305.858 212.885 305.761 213.865 305.392 214.755C305.024 215.646 304.399 216.407 303.598 216.942C302.796 217.477 301.854 217.763 300.891 217.763C299.927 217.763 298.985 217.477 298.184 216.942C297.382 216.407 296.758 215.646 296.389 214.755C296.02 213.865 295.924 212.885 296.112 211.94C296.3 210.995 296.764 210.127 297.445 209.445L300.891 212.891L304.336 209.445Z" fill="#D35252"/>
<line x1="297.654" y1="228.144" x2="303.745" y2="228.144" stroke="#99BFC6" stroke-width="2"/>
<line x1="302.826" y1="228.75" x2="306.48" y2="220.224" stroke="#99BFC6" stroke-width="2"/>
<line y1="-1" x2="9.27696" y2="-1" transform="matrix(-0.393919 -0.919145 -0.919145 0.393919 297.654 229.144)" stroke="#99BFC6" stroke-width="2"/>
<path d="M10 250.018L10 210.018" stroke="#554348" stroke-width="4" stroke-linecap="round"/>
<path d="M70 250V210" stroke="#554348" stroke-width="4" stroke-linecap="round"/>
<path d="M10 210H70" stroke="#554348" stroke-width="4" stroke-linecap="round"/>
<path d="M10 250H70" stroke="#554348" stroke-width="4" stroke-linecap="round"/>
<line x1="40" y1="288" x2="40" y2="248" stroke="#554348" stroke-width="4"/>
<line x1="38" y1="290" x2="42" y2="290" stroke="#554348" stroke-width="4"/>
<rect x="10" y="210" width="60" height="40" fill="#5A4E51"/>
<path d="M19.7614 237V222.455H24.6761C25.8172 222.455 26.75 222.661 27.4744 223.072C28.2036 223.48 28.7434 224.031 29.0938 224.727C29.4441 225.423 29.6193 226.2 29.6193 227.057C29.6193 227.914 29.4441 228.693 29.0938 229.393C28.7481 230.094 28.2131 230.653 27.4886 231.07C26.7642 231.482 25.8362 231.688 24.7045 231.688H21.1818V230.125H24.6477C25.429 230.125 26.0563 229.99 26.5298 229.72C27.0033 229.45 27.3466 229.086 27.5597 228.626C27.7775 228.162 27.8864 227.639 27.8864 227.057C27.8864 226.474 27.7775 225.954 27.5597 225.494C27.3466 225.035 27.0009 224.675 26.5227 224.415C26.0445 224.15 25.41 224.017 24.6193 224.017H21.5227V237H19.7614ZM32.2294 237V226.091H33.8487V227.739H33.9624C34.1612 227.199 34.5211 226.761 35.0419 226.425C35.5627 226.089 36.1499 225.92 36.8033 225.92C36.9264 225.92 37.0803 225.923 37.2649 225.928C37.4496 225.932 37.5893 225.939 37.6839 225.949V227.653C37.6271 227.639 37.4969 227.618 37.2933 227.589C37.0945 227.556 36.8838 227.54 36.6612 227.54C36.1309 227.54 35.6574 227.651 35.2408 227.874C34.8288 228.091 34.5021 228.394 34.2607 228.783C34.0239 229.166 33.9055 229.604 33.9055 230.097V237H32.2294ZM43.7706 237.227C42.7857 237.227 41.9216 236.993 41.1783 236.524C40.4396 236.055 39.862 235.4 39.4453 234.557C39.0334 233.714 38.8274 232.729 38.8274 231.602C38.8274 230.466 39.0334 229.474 39.4453 228.626C39.862 227.779 40.4396 227.121 41.1783 226.652C41.9216 226.183 42.7857 225.949 43.7706 225.949C44.7554 225.949 45.6172 226.183 46.3558 226.652C47.0992 227.121 47.6768 227.779 48.0888 228.626C48.5054 229.474 48.7138 230.466 48.7138 231.602C48.7138 232.729 48.5054 233.714 48.0888 234.557C47.6768 235.4 47.0992 236.055 46.3558 236.524C45.6172 236.993 44.7554 237.227 43.7706 237.227ZM43.7706 235.722C44.5187 235.722 45.1342 235.53 45.6172 235.146C46.1001 234.763 46.4576 234.259 46.6896 233.634C46.9216 233.009 47.0376 232.331 47.0376 231.602C47.0376 230.873 46.9216 230.194 46.6896 229.564C46.4576 228.934 46.1001 228.425 45.6172 228.037C45.1342 227.649 44.5187 227.455 43.7706 227.455C43.0225 227.455 42.407 227.649 41.924 228.037C41.4411 228.425 41.0836 228.934 40.8516 229.564C40.6196 230.194 40.5036 230.873 40.5036 231.602C40.5036 232.331 40.6196 233.009 40.8516 233.634C41.0836 234.259 41.4411 234.763 41.924 235.146C42.407 235.53 43.0225 235.722 43.7706 235.722ZM51.2724 241.091V226.091H52.8917V227.824H53.0906C53.2137 227.634 53.3841 227.393 53.6019 227.099C53.8245 226.801 54.1417 226.536 54.5536 226.304C54.9703 226.067 55.5337 225.949 56.244 225.949C57.1625 225.949 57.9722 226.179 58.6729 226.638C59.3737 227.097 59.9206 227.748 60.3136 228.591C60.7066 229.434 60.9031 230.428 60.9031 231.574C60.9031 232.729 60.7066 233.731 60.3136 234.578C59.9206 235.421 59.3761 236.074 58.68 236.538C57.984 236.998 57.1815 237.227 56.2724 237.227C55.5716 237.227 55.0105 237.111 54.5891 236.879C54.1677 236.643 53.8434 236.375 53.6161 236.077C53.3888 235.774 53.2137 235.523 53.0906 235.324H52.9485V241.091H51.2724ZM52.9201 231.545C52.9201 232.369 53.0408 233.096 53.2823 233.726C53.5238 234.351 53.8765 234.841 54.3406 235.196C54.8046 235.546 55.3728 235.722 56.0451 235.722C56.7459 235.722 57.3306 235.537 57.7994 235.168C58.2728 234.794 58.628 234.292 58.8647 233.662C59.1062 233.027 59.2269 232.322 59.2269 231.545C59.2269 230.778 59.1085 230.087 58.8718 229.472C58.6398 228.851 58.2871 228.361 57.8136 228.001C57.3448 227.637 56.7553 227.455 56.0451 227.455C55.3633 227.455 54.7904 227.627 54.3263 227.973C53.8623 228.314 53.512 228.792 53.2752 229.408C53.0385 230.018 52.9201 230.731 52.9201 231.545Z" fill="white"/>
<path d="M22.3843 292H377.629L375.48 296H200.036L24 295L22.3843 292Z" fill="#83AB63"/>
<defs>
<linearGradient id="paint0_linear_2001_669" x1="200" y1="0" x2="200" y2="400" gradientUnits="userSpaceOnUse">
<stop stop-color="#E6FFFF"/>
<stop offset="0.734241" stop-color="#E6FFFF"/>
<stop offset="0.736585" stop-color="#83AB63"/>
<stop offset="1" stop-color="#83AB63"/>
</linearGradient>
</defs>
</svg>
