<svg width="30" height="41" viewBox="0 0 30 41" fill="none" xmlns="http://www.w3.org/2000/svg">
<path d="M13.5684 0.045257C13.0583 0.0954301 12.2597 0.233406 11.6116 0.379744C8.77243 1.03199 6.25945 2.45357 4.20224 4.56084C2.39172 6.41724 1.1875 8.52451 0.464128 11.0959C0.100352 12.3837 0 13.2826 0 15.1766C0.00418133 17.2714 0.117077 18.371 0.526848 20.173C1.72271 25.4496 4.87125 31.0062 9.51253 36.0403C10.9844 37.6374 13.8068 40.2632 14.6932 40.8652C14.9984 41.0701 15.0904 41.0283 16.0145 40.259C21.538 35.6556 26.2337 29.3756 28.3411 23.7688C29.1648 21.5821 29.6833 19.4121 29.9216 17.1626C30.0261 16.2177 30.0261 14.2192 29.9216 13.3579C29.4449 9.28547 27.3961 5.64374 24.1639 3.1309C22.2823 1.66334 19.9491 0.626429 17.7079 0.254312C16.2905 0.0201705 14.6848 -0.0592702 13.5684 0.045257ZM16.3908 3.2647C18.9623 3.56155 21.7053 5.01658 23.4907 7.03186C25.1758 8.93844 26.1626 11.1168 26.4302 13.546C26.5055 14.2359 26.4971 15.7034 26.4093 16.3599C26.2295 17.7522 25.8992 18.8518 25.2929 20.0685C24.4524 21.7535 23.1102 23.3298 21.5966 24.4001C20.0244 25.5165 17.9254 26.3318 16.1692 26.5116C15.4709 26.5785 13.4012 26.5408 12.8994 26.4488C9.57107 25.8384 6.79466 24.0238 5.00923 21.3019C4.06843 19.8678 3.3367 17.9403 3.17363 16.4686C3.11091 15.8623 3.10673 13.9265 3.17363 13.2951C3.29907 12.0868 3.85519 10.4102 4.5242 9.21857C5.31865 7.80536 6.59814 6.37543 8.01143 5.32597C8.65117 4.85351 9.53343 4.35178 10.2861 4.04238C11.1976 3.67026 12.5231 3.32323 13.5057 3.20198C13.7733 3.16853 15.9852 3.21452 16.3908 3.2647Z" fill="#554348"/>
<path d="M14.5551 7.3622C13.3049 8.21932 7.46355 12.5802 7.50955 12.622C7.52209 12.6346 7.96113 12.6555 8.47962 12.668L9.42878 12.6889L9.45387 13.7342C9.46641 14.307 9.48314 16.1801 9.48732 17.8944L9.4915 21.0135L9.77583 21.2936L10.0602 21.5737H14.9732H19.8863L20.1455 21.3103L20.4006 21.0511L20.434 16.87L20.4675 12.6889L21.4376 12.668C21.9686 12.6555 22.416 12.6346 22.4285 12.622C22.4578 12.5927 15.0736 7.06534 15.0025 7.06534C14.9899 7.06534 14.7892 7.19914 14.5551 7.3622ZM16.7879 13.6004C17.1977 13.7802 17.2646 13.9558 17.3189 14.9425C17.3649 15.8498 17.3273 17.1836 17.2437 17.5139C17.1601 17.8317 16.9928 17.9947 16.6625 18.0825C16.3322 18.1703 14.6471 18.2121 13.8944 18.1536C13.1209 18.0909 12.9202 17.9947 12.7655 17.6017C12.7069 17.4428 12.6944 17.2045 12.6777 16.0463C12.6568 14.2025 12.7153 13.8596 13.0916 13.6673C13.3592 13.5335 13.677 13.5084 15.199 13.5209C16.4451 13.5293 16.6416 13.5377 16.7879 13.6004Z" fill="#554348"/>
</svg>
