<svg width="30" height="42" viewBox="0 0 30 42" fill="none" xmlns="http://www.w3.org/2000/svg">
<path d="M13.5684 1.0134C13.0583 1.06357 12.2597 1.20155 11.6116 1.34788C8.77243 2.00013 6.25945 3.4217 4.20224 5.52897C2.39172 7.38538 1.1875 9.49265 0.464128 12.064C0.100352 13.3518 0 14.2507 0 16.1448C0.00418133 18.2395 0.117077 19.3391 0.526848 21.1412C1.72271 26.4177 4.87125 31.9744 9.51253 37.0084C10.9844 38.6056 13.8068 41.2313 14.6932 41.8334C14.9984 42.0383 15.0904 41.9964 16.0145 41.2271C21.538 36.6237 26.2337 30.3438 28.3411 24.7369C29.1648 22.5502 29.6833 20.3802 29.9216 18.1308C30.0261 17.1859 30.0261 15.1873 29.9216 14.326C29.4449 10.2536 27.3961 6.61188 24.1639 4.09904C22.2823 2.63148 19.9491 1.59457 17.7079 1.22245C16.2905 0.98831 14.6848 0.908869 13.5684 1.0134ZM16.3908 4.23284C18.9623 4.52969 21.7053 5.98472 23.4907 8C25.1758 9.90658 26.1626 12.0849 26.4302 14.5141C26.5055 15.204 26.4971 16.6716 26.4093 17.328C26.2295 18.7203 25.8992 19.8199 25.2929 21.0366C24.4524 22.7216 23.1102 24.2979 21.5966 25.3683C20.0244 26.4846 17.9254 27.2999 16.1692 27.4797C15.4709 27.5466 13.4012 27.509 12.8994 27.417C9.57107 26.8065 6.79466 24.992 5.00923 22.2701C4.06843 20.8359 3.3367 18.9085 3.17363 17.4367C3.11091 16.8305 3.10673 14.8946 3.17363 14.2633C3.29907 13.0549 3.85519 11.3783 4.5242 10.1867C5.31865 8.7735 6.59814 7.34357 8.01143 6.29411C8.65117 5.82165 9.53343 5.31992 10.2861 5.01052C11.1976 4.6384 12.5231 4.29137 13.5057 4.17012C13.7733 4.13667 15.9852 4.18266 16.3908 4.23284Z" fill="#83AB63"/>
<path d="M14.5551 8.33034C13.3049 9.18746 7.46355 13.5483 7.50955 13.5902C7.52209 13.6027 7.96113 13.6236 8.47962 13.6361L9.42878 13.6571L9.45387 14.7023C9.46641 15.2751 9.48314 17.1483 9.48732 18.8625L9.4915 21.9816L9.77583 22.2617L10.0602 22.5419H14.9732H19.8863L20.1455 22.2785L20.4006 22.0192L20.434 17.8381L20.4675 13.6571L21.4376 13.6361C21.9686 13.6236 22.416 13.6027 22.4285 13.5902C22.4578 13.5609 15.0736 8.03348 15.0025 8.03348C14.9899 8.03348 14.7892 8.16728 14.5551 8.33034ZM16.7879 14.5685C17.1977 14.7483 17.2646 14.9239 17.3189 15.9107C17.3649 16.818 17.3273 18.1517 17.2437 18.482C17.1601 18.7998 16.9928 18.9629 16.6625 19.0507C16.3322 19.1385 14.6471 19.1803 13.8944 19.1217C13.1209 19.059 12.9202 18.9629 12.7655 18.5698C12.7069 18.411 12.6944 18.1726 12.6777 17.0145C12.6568 15.1706 12.7153 14.8278 13.0916 14.6354C13.3592 14.5016 13.677 14.4765 15.199 14.4891C16.4451 14.4974 16.6416 14.5058 16.7879 14.5685Z" fill="#83AB63"/>
</svg>
