<svg width="102" height="102" viewBox="0 0 102 102" fill="none" xmlns="http://www.w3.org/2000/svg">
<path d="M51 1C23.3857 1 1 23.3857 1 51C1 78.614 23.3857 101 51 101C78.614 101 101 78.614 101 51C101 23.3857 78.614 1 51 1Z" fill="#99BFC6" stroke="#554348" stroke-linecap="round" stroke-linejoin="round"/>
<path d="M7.96448 75.0205C7.96448 75.0205 20.3655 59.0205 50.9642 59.0205C81.563 59.0205 93.9645 75.0205 93.9645 75.0205" fill="#99BFC6"/>
<path d="M7.96448 75.0205C7.96448 75.0205 20.3655 59.0205 50.9642 59.0205C81.563 59.0205 93.9645 75.0205 93.9645 75.0205" stroke="#554348" stroke-linecap="round" stroke-linejoin="round"/>
<path d="M51.9642 51.0203C61.9056 51.0203 69.9642 42.9617 69.9642 33.0203C69.9642 23.0792 61.9056 15.0203 51.9642 15.0203C42.0228 15.0203 33.9642 23.0792 33.9642 33.0203C33.9642 42.9617 42.0228 51.0203 51.9642 51.0203Z" fill="#99BFC6" stroke="#554348" stroke-linecap="round" stroke-linejoin="round"/>
</svg>
