<svg width="121" height="122" viewBox="0 0 121 122" fill="none" xmlns="http://www.w3.org/2000/svg">
<path d="M60.5 1C27.3629 1 0.5 27.8629 0.5 61C0.5 94.1368 27.3629 121 60.5 121C93.6368 121 120.5 94.1368 120.5 61C120.5 27.8629 93.6368 1 60.5 1Z" stroke="#554348" stroke-linecap="round" stroke-linejoin="round"/>
<path d="M8.85724 89.8242C8.85724 89.8242 23.7384 70.6242 60.4569 70.6242C97.1755 70.6242 112.057 89.8242 112.057 89.8242" stroke="#554348" stroke-linecap="round" stroke-linejoin="round"/>
<path d="M61.6572 61.0242C73.5869 61.0242 83.2572 51.3539 83.2572 39.4242C83.2572 27.4949 73.5869 17.8242 61.6572 17.8242C49.7275 17.8242 40.0572 27.4949 40.0572 39.4242C40.0572 51.3539 49.7275 61.0242 61.6572 61.0242Z" stroke="#554348" stroke-linecap="round" stroke-linejoin="round"/>
</svg>
